<svg xmlns="http://www.w3.org/2000/svg" xml:space="preserve" width="350" height="350" viewBox="0 0 350 350"><path d="M0 0h350v350H0z" style="fill:#ffeb00;stroke-width:.442003;fill-opacity:1"/><path d="M60 56v194l115 73 115-73V56L175 30Z" style="fill:#000;fill-opacity:1;stroke-width:.753"/><path d="m174.532 80.94 66.368 22.1a1.804 1.804 0 0 1 1.23 1.833l-4.381 64.818a1.8 1.8 0 0 0 .513 1.386l19.699 20.03c.65.662.693 1.71.098 2.422l-26.496 31.71a1.8 1.8 0 0 1-2.066.514l-15.604-6.363a1.8 1.8 0 0 0-1.46.043 1.8 1.8 0 0 0-.95 1.11l-7.308 24.444a1.8 1.8 0 0 1-1.198 1.208l-27.915 8.578a1.8 1.8 0 0 1-1.06 0l-27.914-8.578a1.8 1.8 0 0 1-1.198-1.208l-7.309-24.444a1.8 1.8 0 0 0-.95-1.11 1.8 1.8 0 0 0-1.46-.043l-15.604 6.363a1.8 1.8 0 0 1-2.065-.514l-26.497-31.71a1.804 1.804 0 0 1 .099-2.422l19.698-20.03a1.8 1.8 0 0 0 .514-1.386l-4.382-64.818a1.804 1.804 0 0 1 1.23-1.833zm-.767 120.032-9.962 14.553a1.35 1.35 0 0 0 .283 1.827l3.67 2.869a1.35 1.35 0 0 0 1.827-.152l4.484-4.89a.63.63 0 0 1 .93 0l4.484 4.89a1.35 1.35 0 0 0 1.827.152l3.67-2.869a1.35 1.35 0 0 0 .284-1.827l-9.962-14.553a.93.93 0 0 0-1.535 0m37.485-36.465c-9.672 0-17.524 7.852-17.524 17.523s7.852 17.523 17.524 17.523c9.67 0 17.523-7.852 17.523-17.523s-7.852-17.523-17.523-17.523m-73.435 0c-9.671 0-17.523 7.852-17.523 17.523s7.852 17.523 17.523 17.523 17.523-7.852 17.523-17.523-7.852-17.523-17.523-17.523" style="clip-rule:evenodd;fill:#ffe900;fill-rule:evenodd;stroke-width:.0825347;stroke-linejoin:round;stroke-miterlimit:2"/></svg>